# xmcd
#
# Track frame offsets: 
#        150
#        11477
#        23524
#        46815
#        63430
#        83415
#        101086
#        118736
#        140962
#        167585
#        229697
#        249529
#        278481
#        305598
#
# Disc length: 4372 seconds
#
# Revision: 1
# Processed by: cddbd v1.5.2PL0 Copyright (c) Steve Scherf et al.
# Submitted via: ExactAudioCopyFreeDBPlugin 1.0
#
DISCID=af11120e
DTITLE=Noemi - Rosso Live [CD 2)
DYEAR=2012
DGENRE=Pop
TTITLE0=Il cielo toccherò (studio recording)
TTITLE1=Tra vento e aria (studio recording)
TTITLE2=Quello che
TTITLE3=Valerie
TTITLE4=Le luci dell'alba
TTITLE5=Dipendenza fisica
TTITLE6=Per tutta la vita
TTITLE7=In un giorno qualunque
TTITLE8=Vuoto a perdere
TTITLE9=Altrove
TTITLE10=Sospesa
TTITLE11=Damn your eyes
TTITLE12=Sono solo parole (bis)
TTITLE13=L'amore si odia (feat. Fiorella Mannoia)
EXTD=
EXTT0=
EXTT1=
EXTT2=
EXTT3=
EXTT4=
EXTT5=
EXTT6=
EXTT7=
EXTT8=
EXTT9=
EXTT10=
EXTT11=
EXTT12=
EXTT13=
PLAYORDER=
